# xmcd
#
# Track frame offsets: 
#        150
#        13665
#        25290
#        40852
#        56377
#        71694
#        87426
#        102837
#        116637
#        133737
#        150274
#        166286
#        186873
#        200637
#        214661
#        228917
#        249880
#        263229
#        279098
#        295411
#
# Disc length: 4201 seconds
#
# Revision: 4
# Processed by: cddbd v1.5.2PL0 Copyright (c) Steve Scherf et al.
# Submitted via: ExactAudioCopy v0.95b4
#
DISCID=14106714
DTITLE=Various Artist - Singin' With Emmylou, Vol. 2
DYEAR=2003
DGENRE=Country
TTITLE0=Johnny Cash With Emmylou Harris - As Long As I Live
TTITLE1=Tom Astor With Emmylou Harris - The Last Time (Geh Night Allei
TTITLE1=n) 
TTITLE2=The Kendalls - My Baby's Gone
TTITLE3=The Woodys - High Lonesome 
TTITLE4=Lucinda Williams - Greenville
TTITLE5=Billy Joe Shaver - I'm Going Crazy In 3-4 Time
TTITLE6=T. Graham Brown - Sweet Believer
TTITLE7=Mike Auldridge - Dreamin' My Dreams
TTITLE8=Mary Black And Emmylou Harris - Only A Woman's Heart
TTITLE9=Matraca Berg /Appalachian Rain
TTITLE10=Bobby Cryner - Too Many Years Too Late
TTITLE11=Emmylou Harris And Patty Griffin - Beyond The Blue
TTITLE12=Barry and Holly Tashian - I'll Take My Time Going Home 
TTITLE13=Jim and Jesse McReynolds - Flower In The Desert 
TTITLE14=Bill Monroe With Emmylou Harris - Kentucky Waltz
TTITLE15=Albert Lee - Billy Tyler
TTITLE16=Tammy Wynette - Beneath A Painted Sky
TTITLE17=Nicolette Larson /When You Get A Little Lonely
TTITLE18=Tanya Tucker - Stormy Weather 
TTITLE19=Priscilla Coolidge-Jones - Sweet Bed Of Feeling
EXTD=
EXTT0=with Johnny Cash
EXTT1=with Tom Astor
EXTT2=with the Kendalls
EXTT3=with the Woodys
EXTT4=with Lucinda Williams
EXTT5=with Billy Joe Shaver
EXTT6=with T. Graham Brown
EXTT7=with Mike Auldridge
EXTT8=with Mary Black
EXTT9=with Matraca Berg
EXTT10=with Bobby Cryner
EXTT11=with Patty Griffin
EXTT12=with Barry and Holly Tashian
EXTT13=with Jim and Jesse McReynolds
EXTT14=with Bill Monroe
EXTT15=with Albert Lee
EXTT16=with Tammy Wynette
EXTT17=with Nicolette Larson
EXTT18=with Tanya Tucker
EXTT19=with Priscilla Coolidge-Jones
PLAYORDER=
